<mxfile host="app.diagrams.net" modified="2021-12-07T10:25:18.504Z" agent="5.0 (Windows NT 10.0; Win64; x64) AppleWebKit/537.36 (KHTML, like Gecko) Chrome/96.0.4664.55 Safari/537.36 Edg/96.0.1054.43" etag="v34wZ0puDHd9Qv9tSXtE" version="15.9.1" type="github" pages="2">
  <diagram id="C5RBs43oDa-KdzZeNtuy" name="商品抓取">
    <mxGraphModel dx="1422" dy="786" grid="1" gridSize="10" guides="1" tooltips="1" connect="1" arrows="1" fold="1" page="1" pageScale="1" pageWidth="827" pageHeight="1169" math="0" shadow="0">
      <root>
        <mxCell id="WIyWlLk6GJQsqaUBKTNV-0" />
        <mxCell id="WIyWlLk6GJQsqaUBKTNV-1" parent="WIyWlLk6GJQsqaUBKTNV-0" />
        <mxCell id="IABQJey5qq3ElZN-6oPW-0" style="edgeStyle=orthogonalEdgeStyle;rounded=0;orthogonalLoop=1;jettySize=auto;html=1;" edge="1" parent="WIyWlLk6GJQsqaUBKTNV-1" source="WevQeYLsIR4LOhcP6_Fc-0">
          <mxGeometry relative="1" as="geometry">
            <mxPoint x="110" y="210" as="targetPoint" />
          </mxGeometry>
        </mxCell>
        <mxCell id="WevQeYLsIR4LOhcP6_Fc-0" value="淘宝商品抓取" style="rounded=1;whiteSpace=wrap;html=1;" vertex="1" parent="WIyWlLk6GJQsqaUBKTNV-1">
          <mxGeometry x="50" y="70" width="120" height="60" as="geometry" />
        </mxCell>
        <mxCell id="WevQeYLsIR4LOhcP6_Fc-1" value="真快乐商品抓取" style="rounded=1;whiteSpace=wrap;html=1;" vertex="1" parent="WIyWlLk6GJQsqaUBKTNV-1">
          <mxGeometry x="850" y="200" width="130" height="440" as="geometry" />
        </mxCell>
        <mxCell id="IABQJey5qq3ElZN-6oPW-1" style="edgeStyle=orthogonalEdgeStyle;rounded=0;orthogonalLoop=1;jettySize=auto;html=1;exitX=0.5;exitY=1;exitDx=0;exitDy=0;" edge="1" parent="WIyWlLk6GJQsqaUBKTNV-1" source="WevQeYLsIR4LOhcP6_Fc-2">
          <mxGeometry relative="1" as="geometry">
            <mxPoint x="280" y="210" as="targetPoint" />
          </mxGeometry>
        </mxCell>
        <mxCell id="WevQeYLsIR4LOhcP6_Fc-2" value="京东商品抓取" style="rounded=1;whiteSpace=wrap;html=1;" vertex="1" parent="WIyWlLk6GJQsqaUBKTNV-1">
          <mxGeometry x="220" y="70" width="120" height="60" as="geometry" />
        </mxCell>
        <mxCell id="WevQeYLsIR4LOhcP6_Fc-3" value="唯品会商品抓取" style="rounded=1;whiteSpace=wrap;html=1;" vertex="1" parent="WIyWlLk6GJQsqaUBKTNV-1">
          <mxGeometry x="540" y="70" width="120" height="60" as="geometry" />
        </mxCell>
        <mxCell id="WevQeYLsIR4LOhcP6_Fc-4" value="拼多多商品抓取" style="rounded=1;whiteSpace=wrap;html=1;" vertex="1" parent="WIyWlLk6GJQsqaUBKTNV-1">
          <mxGeometry x="380" y="70" width="120" height="60" as="geometry" />
        </mxCell>
        <mxCell id="WevQeYLsIR4LOhcP6_Fc-5" value="" style="shape=flexArrow;endArrow=classic;html=1;rounded=0;" edge="1" parent="WIyWlLk6GJQsqaUBKTNV-1">
          <mxGeometry width="50" height="50" relative="1" as="geometry">
            <mxPoint x="990" y="380" as="sourcePoint" />
            <mxPoint x="1140" y="250" as="targetPoint" />
          </mxGeometry>
        </mxCell>
        <mxCell id="WevQeYLsIR4LOhcP6_Fc-6" value="" style="shape=flexArrow;endArrow=classic;html=1;rounded=0;endWidth=23;endSize=4.55;" edge="1" parent="WIyWlLk6GJQsqaUBKTNV-1">
          <mxGeometry width="50" height="50" relative="1" as="geometry">
            <mxPoint x="990" y="460" as="sourcePoint" />
            <mxPoint x="1150" y="540" as="targetPoint" />
          </mxGeometry>
        </mxCell>
        <mxCell id="WevQeYLsIR4LOhcP6_Fc-7" value="真快乐全量商品获取" style="rounded=1;whiteSpace=wrap;html=1;" vertex="1" parent="WIyWlLk6GJQsqaUBKTNV-1">
          <mxGeometry x="1160" y="220" width="120" height="60" as="geometry" />
        </mxCell>
        <mxCell id="WevQeYLsIR4LOhcP6_Fc-8" value="真快乐全量商品获取" style="rounded=1;whiteSpace=wrap;html=1;" vertex="1" parent="WIyWlLk6GJQsqaUBKTNV-1">
          <mxGeometry x="1160" y="510" width="120" height="60" as="geometry" />
        </mxCell>
        <mxCell id="IABQJey5qq3ElZN-6oPW-5" style="edgeStyle=orthogonalEdgeStyle;rounded=0;orthogonalLoop=1;jettySize=auto;html=1;" edge="1" parent="WIyWlLk6GJQsqaUBKTNV-1" source="IABQJey5qq3ElZN-6oPW-2">
          <mxGeometry relative="1" as="geometry">
            <mxPoint x="110" y="440" as="targetPoint" />
          </mxGeometry>
        </mxCell>
        <mxCell id="IABQJey5qq3ElZN-6oPW-2" value="调用淘宝联盟&lt;br&gt;淘宝客-推广者-物料精选&lt;br&gt;接口" style="rounded=1;whiteSpace=wrap;html=1;" vertex="1" parent="WIyWlLk6GJQsqaUBKTNV-1">
          <mxGeometry x="50" y="320" width="120" height="60" as="geometry" />
        </mxCell>
        <mxCell id="IABQJey5qq3ElZN-6oPW-4" style="edgeStyle=orthogonalEdgeStyle;rounded=0;orthogonalLoop=1;jettySize=auto;html=1;exitX=0.5;exitY=1;exitDx=0;exitDy=0;entryX=0.5;entryY=0;entryDx=0;entryDy=0;" edge="1" parent="WIyWlLk6GJQsqaUBKTNV-1" source="IABQJey5qq3ElZN-6oPW-3" target="IABQJey5qq3ElZN-6oPW-2">
          <mxGeometry relative="1" as="geometry" />
        </mxCell>
        <mxCell id="IABQJey5qq3ElZN-6oPW-3" value="选定物料id集合（见&lt;span style=&quot;background-color: rgb(43 , 43 , 43) ; color: rgb(169 , 183 , 198) ; font-family: &amp;#34;jetbrains mono&amp;#34; , monospace ; font-size: 9.8pt&quot;&gt;TBOptimus&lt;br&gt;MaterialEnum&lt;/span&gt;&lt;span&gt;）&lt;/span&gt;" style="rounded=1;whiteSpace=wrap;html=1;" vertex="1" parent="WIyWlLk6GJQsqaUBKTNV-1">
          <mxGeometry x="50" y="210" width="120" height="60" as="geometry" />
        </mxCell>
        <mxCell id="IABQJey5qq3ElZN-6oPW-7" style="edgeStyle=orthogonalEdgeStyle;rounded=0;orthogonalLoop=1;jettySize=auto;html=1;" edge="1" parent="WIyWlLk6GJQsqaUBKTNV-1" source="IABQJey5qq3ElZN-6oPW-6">
          <mxGeometry relative="1" as="geometry">
            <mxPoint x="110" y="550" as="targetPoint" />
          </mxGeometry>
        </mxCell>
        <mxCell id="IABQJey5qq3ElZN-6oPW-6" value="去重过滤出佣金取整后大于3的商品，截取店铺名称，品牌id，过滤关键词" style="rounded=1;whiteSpace=wrap;html=1;" vertex="1" parent="WIyWlLk6GJQsqaUBKTNV-1">
          <mxGeometry x="50" y="440" width="120" height="60" as="geometry" />
        </mxCell>
        <mxCell id="IABQJey5qq3ElZN-6oPW-10" style="edgeStyle=orthogonalEdgeStyle;rounded=0;orthogonalLoop=1;jettySize=auto;html=1;exitX=0.5;exitY=1;exitDx=0;exitDy=0;entryX=0.5;entryY=0;entryDx=0;entryDy=0;" edge="1" parent="WIyWlLk6GJQsqaUBKTNV-1" source="IABQJey5qq3ElZN-6oPW-8" target="IABQJey5qq3ElZN-6oPW-9">
          <mxGeometry relative="1" as="geometry" />
        </mxCell>
        <mxCell id="IABQJey5qq3ElZN-6oPW-8" value="商品入库" style="rounded=1;whiteSpace=wrap;html=1;" vertex="1" parent="WIyWlLk6GJQsqaUBKTNV-1">
          <mxGeometry x="50" y="550" width="120" height="60" as="geometry" />
        </mxCell>
        <mxCell id="IABQJey5qq3ElZN-6oPW-9" value="商品推送大数据平台" style="rounded=1;whiteSpace=wrap;html=1;" vertex="1" parent="WIyWlLk6GJQsqaUBKTNV-1">
          <mxGeometry x="50" y="650" width="120" height="60" as="geometry" />
        </mxCell>
      </root>
    </mxGraphModel>
  </diagram>
  <diagram id="i6vW19DHlV3crXUVioti" name="订单同步">
    <mxGraphModel dx="1422" dy="786" grid="1" gridSize="10" guides="1" tooltips="1" connect="1" arrows="1" fold="1" page="1" pageScale="1" pageWidth="827" pageHeight="1169" math="0" shadow="0">
      <root>
        <mxCell id="MrEOR1eJBA_8X7NTVbQH-0" />
        <mxCell id="MrEOR1eJBA_8X7NTVbQH-1" parent="MrEOR1eJBA_8X7NTVbQH-0" />
      </root>
    </mxGraphModel>
  </diagram>
</mxfile>
